<svg width="111" height="37" viewBox="0 0 111 37" fill="none" xmlns="http://www.w3.org/2000/svg">
<path d="M47.2 25.1162C47.0667 25.1162 46.9533 25.0762 46.86 24.9962C46.78 24.9029 46.74 24.7895 46.74 24.6562V11.5962C46.74 11.4495 46.78 11.3362 46.86 11.2562C46.9533 11.1629 47.0667 11.1162 47.2 11.1162H48.2C48.4133 11.1162 48.5867 11.2229 48.72 11.4362L52.94 19.5162L57.2 11.4362C57.2267 11.3562 57.28 11.2829 57.36 11.2162C57.4533 11.1495 57.5667 11.1162 57.7 11.1162H58.68C58.8267 11.1162 58.94 11.1629 59.02 11.2562C59.1133 11.3362 59.16 11.4495 59.16 11.5962V24.6562C59.16 24.7895 59.1133 24.9029 59.02 24.9962C58.9267 25.0762 58.8133 25.1162 58.68 25.1162H57.7C57.5667 25.1162 57.4533 25.0762 57.36 24.9962C57.28 24.9029 57.24 24.7895 57.24 24.6562V14.8162L53.9 21.3362C53.7667 21.6162 53.5533 21.7562 53.26 21.7562H52.64C52.3467 21.7562 52.1333 21.6162 52 21.3362L48.64 14.8162V24.6562C48.64 24.7895 48.5933 24.9029 48.5 24.9962C48.42 25.0762 48.3133 25.1162 48.18 25.1162H47.2ZM65.2589 25.3162C64.6056 25.3162 63.9989 25.1829 63.4389 24.9162C62.8789 24.6495 62.4322 24.2895 62.0989 23.8362C61.7789 23.3695 61.6189 22.8562 61.6189 22.2962C61.6189 21.4162 61.9789 20.6962 62.6989 20.1362C63.4322 19.5629 64.4189 19.1895 65.6589 19.0162L68.6389 18.5962V18.0162C68.6389 16.6562 67.8589 15.9762 66.2989 15.9762C65.7122 15.9762 65.2322 16.1029 64.8589 16.3562C64.4856 16.5962 64.2056 16.8829 64.0189 17.2162C63.9789 17.3362 63.9256 17.4229 63.8589 17.4762C63.8056 17.5295 63.7256 17.5562 63.6189 17.5562H62.7589C62.6389 17.5562 62.5322 17.5162 62.4389 17.4362C62.3589 17.3429 62.3189 17.2362 62.3189 17.1162C62.3322 16.7962 62.4789 16.4362 62.7589 16.0362C63.0522 15.6229 63.4989 15.2695 64.0989 14.9762C64.6989 14.6695 65.4389 14.5162 66.3189 14.5162C67.8122 14.5162 68.8856 14.8695 69.5389 15.5762C70.1922 16.2695 70.5189 17.1362 70.5189 18.1762V24.6562C70.5189 24.7895 70.4722 24.9029 70.3789 24.9962C70.2989 25.0762 70.1922 25.1162 70.0589 25.1162H69.1389C69.0056 25.1162 68.8922 25.0762 68.7989 24.9962C68.7189 24.9029 68.6789 24.7895 68.6789 24.6562V23.7962C68.3856 24.2229 67.9589 24.5829 67.3989 24.8762C66.8389 25.1695 66.1256 25.3162 65.2589 25.3162ZM65.6789 23.8162C66.5456 23.8162 67.2522 23.5362 67.7989 22.9762C68.3589 22.4029 68.6389 21.5829 68.6389 20.5162V19.9562L66.3189 20.2962C65.3722 20.4295 64.6589 20.6562 64.1789 20.9762C63.6989 21.2829 63.4589 21.6762 63.4589 22.1562C63.4589 22.6895 63.6789 23.1029 64.1189 23.3962C64.5589 23.6762 65.0789 23.8162 65.6789 23.8162ZM72.9141 25.1162C72.8074 25.1162 72.7074 25.0762 72.6141 24.9962C72.5341 24.9162 72.4941 24.8162 72.4941 24.6962C72.4941 24.5762 72.5407 24.4562 72.6341 24.3362L76.1141 19.7962L72.8541 15.4962C72.7607 15.3895 72.7141 15.2695 72.7141 15.1362C72.7141 15.0162 72.7541 14.9162 72.8341 14.8362C72.9141 14.7562 73.0141 14.7162 73.1341 14.7162H74.1541C74.3541 14.7162 74.5274 14.8229 74.6741 15.0362L77.3341 18.4962L79.9941 15.0562C80.0741 14.9495 80.1474 14.8695 80.2141 14.8162C80.2941 14.7495 80.3941 14.7162 80.5141 14.7162H81.4941C81.6141 14.7162 81.7141 14.7562 81.7941 14.8362C81.8741 14.9162 81.9141 15.0162 81.9141 15.1362C81.9141 15.2695 81.8674 15.3895 81.7741 15.4962L78.4741 19.8362L81.9541 24.3362C82.0474 24.4562 82.0941 24.5762 82.0941 24.6962C82.0941 24.8162 82.0541 24.9162 81.9741 24.9962C81.8941 25.0762 81.7941 25.1162 81.6741 25.1162H80.6141C80.4141 25.1162 80.2407 25.0162 80.0941 24.8162L77.2941 21.1562L74.4541 24.8162C74.3741 24.9095 74.2941 24.9829 74.2141 25.0362C74.1474 25.0895 74.0541 25.1162 73.9341 25.1162H72.9141ZM89.8353 25.3162C87.9286 25.3162 86.4353 24.8562 85.3553 23.9362C84.2886 23.0029 83.722 21.6562 83.6553 19.8962C83.642 19.5362 83.6353 18.9495 83.6353 18.1362C83.6353 17.3095 83.642 16.7095 83.6553 16.3362C83.722 14.6029 84.302 13.2695 85.3953 12.3362C86.4886 11.3895 87.9686 10.9162 89.8353 10.9162C91.0086 10.9162 92.062 11.1162 92.9953 11.5162C93.9286 11.9029 94.662 12.4629 95.1953 13.1962C95.742 13.9162 96.022 14.7629 96.0353 15.7362V15.7762C96.0353 15.8829 95.9886 15.9762 95.8953 16.0562C95.8153 16.1229 95.722 16.1562 95.6153 16.1562H92.9153C92.742 16.1562 92.6086 16.1229 92.5153 16.0562C92.422 15.9762 92.342 15.8362 92.2753 15.6362C92.0886 14.9562 91.7953 14.4829 91.3953 14.2162C90.9953 13.9362 90.4686 13.7962 89.8153 13.7962C88.242 13.7962 87.4286 14.6762 87.3753 16.4362C87.362 16.7962 87.3553 17.3495 87.3553 18.0962C87.3553 18.8429 87.362 19.4095 87.3753 19.7962C87.4286 21.5562 88.242 22.4362 89.8153 22.4362C90.4686 22.4362 91.002 22.2962 91.4153 22.0162C91.8286 21.7229 92.1153 21.2495 92.2753 20.5962C92.3286 20.3962 92.402 20.2629 92.4953 20.1962C92.5886 20.1162 92.7286 20.0762 92.9153 20.0762H95.6153C95.7353 20.0762 95.8353 20.1162 95.9153 20.1962C96.0086 20.2762 96.0486 20.3762 96.0353 20.4962C96.022 21.4695 95.742 22.3229 95.1953 23.0562C94.662 23.7762 93.9286 24.3362 92.9953 24.7362C92.062 25.1229 91.0086 25.3162 89.8353 25.3162ZM96.9686 25.1162C96.8486 25.1162 96.7419 25.0762 96.6486 24.9962C96.5686 24.9029 96.5286 24.8029 96.5286 24.6962C96.5286 24.6029 96.5553 24.5229 96.6086 24.4562L100.969 17.9762L96.9286 11.7762C96.8886 11.6962 96.8686 11.6162 96.8686 11.5362C96.8686 11.4295 96.9086 11.3362 96.9886 11.2562C97.0686 11.1629 97.1686 11.1162 97.2886 11.1162H100.189C100.349 11.1162 100.482 11.1562 100.589 11.2362C100.695 11.3162 100.795 11.4162 100.889 11.5362L103.269 15.1562L105.689 11.5362C105.862 11.2562 106.095 11.1162 106.389 11.1162H109.149C109.255 11.1162 109.349 11.1629 109.429 11.2562C109.522 11.3362 109.569 11.4295 109.569 11.5362C109.569 11.6295 109.542 11.7095 109.489 11.7762L105.429 17.9562L109.829 24.4562C109.869 24.5095 109.889 24.5895 109.889 24.6962C109.889 24.8029 109.849 24.9029 109.769 24.9962C109.689 25.0762 109.589 25.1162 109.469 25.1162H106.489C106.209 25.1162 105.975 24.9829 105.789 24.7162L103.149 20.8762L100.529 24.7162C100.382 24.9829 100.155 25.1162 99.8486 25.1162H96.9686Z" fill="#0B132A"/>
<path d="M3.85267 22.5847L3.87447 22.6065C3.87623 22.6077 3.87764 22.6093 3.87852 22.6112L17.4994 36.2324L31.1202 22.6115C31.1217 22.61 31.1242 22.6068 31.1242 22.6068L31.1467 22.585C33.2295 20.4905 34.5524 17.7599 34.9052 14.8272C35.2579 11.8945 34.6203 8.92802 33.0936 6.39929C31.5669 3.87056 29.2388 1.92468 26.4793 0.87119C23.7198 -0.1823 20.6874 -0.283251 17.864 0.584692C17.6264 0.657327 17.3725 0.657327 17.1349 0.584692C14.3118 -0.2829 11.2795 -0.181948 8.52021 0.871718C5.76091 1.92538 3.43303 3.87109 1.90643 6.39964C0.379842 8.9282 -0.257883 11.8945 0.0947476 14.827C0.447378 17.7596 1.77013 20.4902 3.85267 22.5847ZM26.2768 13.6026C26.3431 13.5363 26.3957 13.4575 26.4316 13.371C26.4674 13.2844 26.4859 13.1916 26.4859 13.0978C26.4616 10.6938 25.7822 8.342 24.5208 6.29535C24.4921 6.24892 24.4789 6.19457 24.483 6.14023C24.487 6.08588 24.5082 6.03417 24.5434 5.99249C24.5787 5.95081 24.6262 5.92144 24.6791 5.90842C24.7321 5.89541 24.7878 5.89945 24.8384 5.92003C25.7867 6.31891 26.6482 6.89878 27.3747 7.62707C28.8635 9.11621 29.7005 11.1354 29.7019 13.2412C29.7033 15.3469 28.8688 17.3672 27.3819 18.8581L17.4994 28.7397L7.61744 18.8581C6.13025 17.3674 5.29554 15.3471 5.29695 13.2412C5.29818 11.1354 6.13534 9.11621 7.6243 7.62708C8.35084 6.89878 9.21228 6.31891 10.1604 5.92003C10.2111 5.89945 10.2668 5.89541 10.3198 5.90842C10.3727 5.92144 10.4202 5.95099 10.4555 5.99249C10.4907 6.03418 10.512 6.08588 10.516 6.1404C10.5201 6.19475 10.5069 6.2491 10.4782 6.29553C9.2165 8.34201 8.53674 10.6938 8.51212 13.0978C8.51212 13.1916 8.53076 13.2844 8.56682 13.3711C8.60287 13.4579 8.65563 13.5365 8.72211 13.6028L13.3963 18.5607C13.4429 18.5996 13.5015 18.6208 13.5622 18.6208C13.6227 18.6208 13.6814 18.5996 13.7279 18.5607C13.7745 18.522 13.8058 18.468 13.8167 18.4084C13.8276 18.3488 13.8172 18.2874 13.7873 18.2346C11.9719 14.9494 13.533 10.2307 16.1363 7.62707L16.15 7.61336C16.5093 7.25791 16.9944 7.05865 17.4998 7.05882C18.0052 7.059 18.4902 7.25862 18.8492 7.61424L18.8618 7.62707C21.4661 10.2307 23.0264 14.9489 21.2107 18.2339C21.1808 18.2867 21.1704 18.3481 21.1813 18.4077C21.1921 18.4673 21.2236 18.5213 21.2701 18.56C21.3166 18.5989 21.3753 18.6201 21.4358 18.6201C21.4964 18.6201 21.5551 18.5989 21.6016 18.56L26.2768 13.6026Z" fill="#F53838"/>
</svg>
