<svg width="13" height="12" viewBox="0 0 13 12" fill="none" xmlns="http://www.w3.org/2000/svg">
<path d="M12.0521 4.14428L8.44192 3.626L6.82809 0.394177C6.78402 0.305691 6.7115 0.23406 6.62192 0.19052C6.39727 0.0809663 6.12427 0.172261 6.01194 0.394177L4.39811 3.626L0.787969 4.14428C0.688438 4.15832 0.597438 4.20467 0.527766 4.2749C0.443536 4.36041 0.397122 4.47547 0.398722 4.59477C0.400321 4.71407 0.449804 4.82787 0.536297 4.91115L3.14828 7.42667L2.53119 10.9787C2.51672 11.0614 2.52597 11.1463 2.55791 11.224C2.58984 11.3017 2.64318 11.369 2.71186 11.4183C2.78055 11.4676 2.86184 11.4969 2.94652 11.5028C3.03119 11.5088 3.11587 11.4912 3.19094 11.4521L6.42002 9.77504L9.64909 11.4521C9.73725 11.4984 9.83963 11.5139 9.93773 11.497C10.1851 11.4549 10.3515 11.2231 10.3088 10.9787L9.69175 7.42667L12.3037 4.91115C12.3748 4.84233 12.4217 4.75244 12.436 4.65412C12.4744 4.40833 12.3009 4.18079 12.0521 4.14428Z" fill="#FEA250"/>
</svg>
